<?xml version="1.0" encoding="UTF-8"?><svg id="Concept" xmlns="http://www.w3.org/2000/svg" viewBox="0 0 8503.94 8503.94"><defs><style>.cls-1{fill:#c01936;}.cls-1,.cls-2,.cls-3,.cls-4{stroke:#1d1d1b;stroke-miterlimit:10;}.cls-5{fill:#d87b1d;}.cls-2{fill:#f38f1a;}.cls-6{fill:#bc681c;}.cls-3{fill:#ab1929;}.cls-4{fill:#be1622;}</style></defs><g><ellipse class="cls-2" cx="2269.8" cy="6089.61" rx="518.64" ry="70.5" transform="translate(-1914.56 1117.04) rotate(-19.64)"/><ellipse class="cls-2" cx="2120.41" cy="5670.95" rx="521.16" ry="70.5" transform="translate(-1782.55 1042.48) rotate(-19.64)"/><ellipse class="cls-2" cx="1971.02" cy="5252.28" rx="523.68" ry="70.5" transform="translate(-1650.54 967.92) rotate(-19.64)"/></g><g><path class="cls-4" d="m485.29,4949.98c30.21,0,886.22,312.19,916.44,302.12,30.21-10.07,716.31-302.12,716.31-302.12l-816.38-322.26-816.38,322.26Z"/><path class="cls-4" d="m485.29,4937.96c30.21,0,886.22,312.19,916.44,302.12,30.21-10.07,716.31-302.12,716.31-302.12l-816.38-322.26-816.38,322.26Z"/><path class="cls-4" d="m485.29,4925.95c30.21,0,886.22,312.19,916.44,302.12,30.21-10.07,716.31-302.12,716.31-302.12l-816.38-322.26-816.38,322.26Z"/><path class="cls-4" d="m485.29,4913.94c30.21,0,886.22,312.19,916.44,302.12,30.21-10.07,716.31-302.12,716.31-302.12l-816.38-322.26-816.38,322.26Z"/><path class="cls-4" d="m485.29,4901.93c30.21,0,886.22,312.19,916.44,302.12,30.21-10.07,716.31-302.12,716.31-302.12l-816.38-322.26-816.38,322.26Z"/><path class="cls-4" d="m485.29,4889.91c30.21,0,886.22,312.19,916.44,302.12,30.21-10.07,716.31-302.12,716.31-302.12l-816.38-322.26-816.38,322.26Z"/><path class="cls-4" d="m485.29,4877.9c30.21,0,886.22,312.19,916.44,302.12,30.21-10.07,716.31-302.12,716.31-302.12l-816.38-322.26-816.38,322.26Z"/><path class="cls-4" d="m485.29,4865.89c30.21,0,886.22,312.19,916.44,302.12,30.21-10.07,716.31-302.12,716.31-302.12l-816.38-322.26-816.38,322.26Z"/><path class="cls-4" d="m485.29,4853.87c30.21,0,886.22,312.19,916.44,302.12,30.21-10.07,716.31-302.12,716.31-302.12l-816.38-322.26-816.38,322.26Z"/><path class="cls-4" d="m485.29,4841.86c30.21,0,886.22,312.19,916.44,302.12,30.21-10.07,716.31-302.12,716.31-302.12l-816.38-322.26-816.38,322.26Z"/><path class="cls-4" d="m485.29,4829.85c30.21,0,886.22,312.19,916.44,302.12,30.21-10.07,716.31-302.12,716.31-302.12l-816.38-322.26-816.38,322.26Z"/><path class="cls-4" d="m485.29,4817.84c30.21,0,886.22,312.19,916.44,302.12,30.21-10.07,716.31-302.12,716.31-302.12l-816.38-322.26-816.38,322.26Z"/><path class="cls-4" d="m485.29,4805.82c30.21,0,886.22,312.19,916.44,302.12,30.21-10.07,716.31-302.12,716.31-302.12l-816.38-322.26-816.38,322.26Z"/><path class="cls-4" d="m485.29,4793.81c30.21,0,886.22,312.19,916.44,302.12,30.21-10.07,716.31-302.12,716.31-302.12l-816.38-322.26-816.38,322.26Z"/><path class="cls-4" d="m485.29,4781.8c30.21,0,886.22,312.19,916.44,302.12,30.21-10.07,716.31-302.12,716.31-302.12l-816.38-322.26-816.38,322.26Z"/><path class="cls-4" d="m485.29,4769.79c30.21,0,886.22,312.19,916.44,302.12,30.21-10.07,716.31-302.12,716.31-302.12l-816.38-322.26-816.38,322.26Z"/><path class="cls-4" d="m485.29,4757.77c30.21,0,886.22,312.19,916.44,302.12,30.21-10.07,716.31-302.12,716.31-302.12l-816.38-322.26-816.38,322.26Z"/><path class="cls-4" d="m485.29,4745.76c30.21,0,886.22,312.19,916.44,302.12,30.21-10.07,716.31-302.12,716.31-302.12l-816.38-322.26-816.38,322.26Z"/><path class="cls-4" d="m485.29,4733.75c30.21,0,886.22,312.19,916.44,302.12,30.21-10.07,716.31-302.12,716.31-302.12l-816.38-322.26-816.38,322.26Z"/><path class="cls-4" d="m485.29,4721.74c30.21,0,886.22,312.19,916.44,302.12,30.21-10.07,716.31-302.12,716.31-302.12l-816.38-322.26-816.38,322.26Z"/><path class="cls-4" d="m485.29,4709.72c30.21,0,886.22,312.19,916.44,302.12,30.21-10.07,716.31-302.12,716.31-302.12l-816.38-322.26-816.38,322.26Z"/><path class="cls-4" d="m485.29,4697.71c30.21,0,886.22,312.19,916.44,302.12,30.21-10.07,716.31-302.12,716.31-302.12l-816.38-322.26-816.38,322.26Z"/><path class="cls-4" d="m485.29,4685.7c30.21,0,886.22,312.19,916.44,302.12,30.21-10.07,716.31-302.12,716.31-302.12l-816.38-322.26-816.38,322.26Z"/><path class="cls-4" d="m485.29,4673.68c30.21,0,886.22,312.19,916.44,302.12,30.21-10.07,716.31-302.12,716.31-302.12l-816.38-322.26-816.38,322.26Z"/><path class="cls-4" d="m485.29,4661.67c30.21,0,886.22,312.19,916.44,302.12,30.21-10.07,716.31-302.12,716.31-302.12l-816.38-322.26-816.38,322.26Z"/><path class="cls-4" d="m485.29,4649.66c30.21,0,886.22,312.19,916.44,302.12,30.21-10.07,716.31-302.12,716.31-302.12l-816.38-322.26-816.38,322.26Z"/><path class="cls-4" d="m485.29,4637.65c30.21,0,886.22,312.19,916.44,302.12,30.21-10.07,716.31-302.12,716.31-302.12l-816.38-322.26-816.38,322.26Z"/><path class="cls-4" d="m485.29,4625.63c30.21,0,886.22,312.19,916.44,302.12,30.21-10.07,716.31-302.12,716.31-302.12l-816.38-322.26-816.38,322.26Z"/><path class="cls-4" d="m485.29,4613.62c30.21,0,886.22,312.19,916.44,302.12,30.21-10.07,716.31-302.12,716.31-302.12l-816.38-322.26-816.38,322.26Z"/><path class="cls-4" d="m485.29,4601.61c30.21,0,886.22,312.19,916.44,302.12,30.21-10.07,716.31-302.12,716.31-302.12l-816.38-322.26-816.38,322.26Z"/><path class="cls-4" d="m485.29,4589.6c30.21,0,886.22,312.19,916.44,302.12,30.21-10.07,716.31-302.12,716.31-302.12l-816.38-322.26-816.38,322.26Z"/><path class="cls-4" d="m485.29,4577.58c30.21,0,886.22,312.19,916.44,302.12,30.21-10.07,716.31-302.12,716.31-302.12l-816.38-322.26-816.38,322.26Z"/><path class="cls-4" d="m485.29,4565.57c30.21,0,886.22,312.19,916.44,302.12,30.21-10.07,716.31-302.12,716.31-302.12l-816.38-322.26-816.38,322.26Z"/><path class="cls-4" d="m485.29,4553.56c30.21,0,886.22,312.19,916.44,302.12,30.21-10.07,716.31-302.12,716.31-302.12l-816.38-322.26-816.38,322.26Z"/><path class="cls-4" d="m485.29,4541.55c30.21,0,886.22,312.19,916.44,302.12,30.21-10.07,716.31-302.12,716.31-302.12l-816.38-322.26-816.38,322.26Z"/><path class="cls-4" d="m485.29,4529.53c30.21,0,886.22,312.19,916.44,302.12,30.21-10.07,716.31-302.12,716.31-302.12l-816.38-322.26-816.38,322.26Z"/><path class="cls-4" d="m485.29,4517.52c30.21,0,886.22,312.19,916.44,302.12,30.21-10.07,716.31-302.12,716.31-302.12l-816.38-322.26-816.38,322.26Z"/><path class="cls-4" d="m485.29,4505.51c30.21,0,886.22,312.19,916.44,302.12,30.21-10.07,716.31-302.12,716.31-302.12l-816.38-322.26-816.38,322.26Z"/><path class="cls-4" d="m485.29,4493.49c30.21,0,886.22,312.19,916.44,302.12,30.21-10.07,716.31-302.12,716.31-302.12l-816.38-322.26-816.38,322.26Z"/><path class="cls-4" d="m485.29,4481.48c30.21,0,886.22,312.19,916.44,302.12,30.21-10.07,716.31-302.12,716.31-302.12l-816.38-322.26-816.38,322.26Z"/><path class="cls-4" d="m485.29,4469.47c30.21,0,886.22,312.19,916.44,302.12,30.21-10.07,716.31-302.12,716.31-302.12l-816.38-322.26-816.38,322.26Z"/><path class="cls-4" d="m485.29,4457.46c30.21,0,886.22,312.19,916.44,302.12,30.21-10.07,716.31-302.12,716.31-302.12l-816.38-322.26-816.38,322.26Z"/><path class="cls-4" d="m485.29,4445.44c30.21,0,886.22,312.19,916.44,302.12,30.21-10.07,716.31-302.12,716.31-302.12l-816.38-322.26-816.38,322.26Z"/><path class="cls-4" d="m485.29,4433.43c30.21,0,886.22,312.19,916.44,302.12,30.21-10.07,716.31-302.12,716.31-302.12l-816.38-322.26-816.38,322.26Z"/><path class="cls-4" d="m485.29,4421.42c30.21,0,886.22,312.19,916.44,302.12,30.21-10.07,716.31-302.12,716.31-302.12l-816.38-322.26-816.38,322.26Z"/><path class="cls-4" d="m485.29,4409.41c30.21,0,886.22,312.19,916.44,302.12,30.21-10.07,716.31-302.12,716.31-302.12l-816.38-322.26-816.38,322.26Z"/><path class="cls-4" d="m485.29,4397.39c30.21,0,886.22,312.19,916.44,302.12,30.21-10.07,716.31-302.12,716.31-302.12l-816.38-322.26-816.38,322.26Z"/><path class="cls-4" d="m485.29,4385.38c30.21,0,886.22,312.19,916.44,302.12,30.21-10.07,716.31-302.12,716.31-302.12l-816.38-322.26-816.38,322.26Z"/><path class="cls-4" d="m485.29,4373.37c30.21,0,886.22,312.19,916.44,302.12,30.21-10.07,716.31-302.12,716.31-302.12l-816.38-322.26-816.38,322.26Z"/><path class="cls-4" d="m485.29,4361.36c30.21,0,886.22,312.19,916.44,302.12,30.21-10.07,716.31-302.12,716.31-302.12l-816.38-322.26-816.38,322.26Z"/><path class="cls-4" d="m485.29,4349.34c30.21,0,886.22,312.19,916.44,302.12,30.21-10.07,716.31-302.12,716.31-302.12l-816.38-322.26-816.38,322.26Z"/><path class="cls-4" d="m485.29,4337.33c30.21,0,886.22,312.19,916.44,302.12,30.21-10.07,716.31-302.12,716.31-302.12l-816.38-322.26-816.38,322.26Z"/><path class="cls-4" d="m485.29,4325.32c30.21,0,886.22,312.19,916.44,302.12,30.21-10.07,716.31-302.12,716.31-302.12l-816.38-322.26-816.38,322.26Z"/><path class="cls-4" d="m485.29,4313.3c30.21,0,886.22,312.19,916.44,302.12,30.21-10.07,716.31-302.12,716.31-302.12l-816.38-322.26-816.38,322.26Z"/><path class="cls-4" d="m485.29,4301.29c30.21,0,886.22,312.19,916.44,302.12,30.21-10.07,716.31-302.12,716.31-302.12l-816.38-322.26-816.38,322.26Z"/><path class="cls-4" d="m485.29,4289.28c30.21,0,886.22,312.19,916.44,302.12,30.21-10.07,716.31-302.12,716.31-302.12l-816.38-322.26-816.38,322.26Z"/><path class="cls-4" d="m485.29,4277.27c30.21,0,886.22,312.19,916.44,302.12,30.21-10.07,716.31-302.12,716.31-302.12l-816.38-322.26-816.38,322.26Z"/><path class="cls-4" d="m485.29,4265.25c30.21,0,886.22,312.19,916.44,302.12,30.21-10.07,716.31-302.12,716.31-302.12l-816.38-322.26-816.38,322.26Z"/><path class="cls-4" d="m485.29,4253.24c30.21,0,886.22,312.19,916.44,302.12,30.21-10.07,716.31-302.12,716.31-302.12l-816.38-322.26-816.38,322.26Z"/><path class="cls-4" d="m485.29,4241.23c30.21,0,886.22,312.19,916.44,302.12,30.21-10.07,716.31-302.12,716.31-302.12l-816.38-322.26-816.38,322.26Z"/><path class="cls-4" d="m485.29,4229.22c30.21,0,886.22,312.19,916.44,302.12,30.21-10.07,716.31-302.12,716.31-302.12l-816.38-322.26-816.38,322.26Z"/><path class="cls-4" d="m485.29,4217.2c30.21,0,886.22,312.19,916.44,302.12,30.21-10.07,716.31-302.12,716.31-302.12l-816.38-322.26-816.38,322.26Z"/><path class="cls-4" d="m485.29,4205.19c30.21,0,886.22,312.19,916.44,302.12,30.21-10.07,716.31-302.12,716.31-302.12l-816.38-322.26-816.38,322.26Z"/><path class="cls-4" d="m485.29,4193.18c30.21,0,886.22,312.19,916.44,302.12,30.21-10.07,716.31-302.12,716.31-302.12l-816.38-322.26-816.38,322.26Z"/><path class="cls-4" d="m485.29,4181.16c30.21,0,886.22,312.19,916.44,302.12,30.21-10.07,716.31-302.12,716.31-302.12l-816.38-322.26-816.38,322.26Z"/><path class="cls-4" d="m485.29,4169.15c30.21,0,886.22,312.19,916.44,302.12,30.21-10.07,716.31-302.12,716.31-302.12l-816.38-322.26-816.38,322.26Z"/><path class="cls-4" d="m485.29,4157.14c30.21,0,886.22,312.19,916.44,302.12,30.21-10.07,716.31-302.12,716.31-302.12l-816.38-322.26-816.38,322.26Z"/><path class="cls-4" d="m485.29,4145.13c30.21,0,886.22,312.19,916.44,302.12,30.21-10.07,716.31-302.12,716.31-302.12l-816.38-322.26-816.38,322.26Z"/><path class="cls-4" d="m485.29,4133.11c30.21,0,886.22,312.19,916.44,302.12,30.21-10.07,716.31-302.12,716.31-302.12l-816.38-322.26-816.38,322.26Z"/><path class="cls-4" d="m485.29,4121.1c30.21,0,886.22,312.19,916.44,302.12,30.21-10.07,716.31-302.12,716.31-302.12l-816.38-322.26-816.38,322.26Z"/><path class="cls-4" d="m485.29,4109.09c30.21,0,886.22,312.19,916.44,302.12,30.21-10.07,716.31-302.12,716.31-302.12l-816.38-322.26-816.38,322.26Z"/><path class="cls-4" d="m485.29,4097.08c30.21,0,886.22,312.19,916.44,302.12,30.21-10.07,716.31-302.12,716.31-302.12l-816.38-322.26-816.38,322.26Z"/><path class="cls-4" d="m485.29,4085.06c30.21,0,886.22,312.19,916.44,302.12,30.21-10.07,716.31-302.12,716.31-302.12l-816.38-322.26-816.38,322.26Z"/><path class="cls-4" d="m485.29,4073.05c30.21,0,886.22,312.19,916.44,302.12,30.21-10.07,716.31-302.12,716.31-302.12l-816.38-322.26-816.38,322.26Z"/><path class="cls-4" d="m485.29,4061.04c30.21,0,886.22,312.19,916.44,302.12,30.21-10.07,716.31-302.12,716.31-302.12l-816.38-322.26-816.38,322.26Z"/><path class="cls-4" d="m485.29,4049.03c30.21,0,886.22,312.19,916.44,302.12,30.21-10.07,716.31-302.12,716.31-302.12l-816.38-322.26-816.38,322.26Z"/><path class="cls-4" d="m485.29,4037.01c30.21,0,886.22,312.19,916.44,302.12,30.21-10.07,716.31-302.12,716.31-302.12l-816.38-322.26-816.38,322.26Z"/><path class="cls-4" d="m485.29,4025c30.21,0,886.22,312.19,916.44,302.12,30.21-10.07,716.31-302.12,716.31-302.12l-816.38-322.26-816.38,322.26Z"/><path class="cls-4" d="m485.29,4012.99c30.21,0,886.22,312.19,916.44,302.12,30.21-10.07,716.31-302.12,716.31-302.12l-816.38-322.26-816.38,322.26Z"/><path class="cls-4" d="m485.29,4000.97c30.21,0,886.22,312.19,916.44,302.12,30.21-10.07,716.31-302.12,716.31-302.12l-816.38-322.26-816.38,322.26Z"/><path class="cls-4" d="m485.29,3988.96c30.21,0,886.22,312.19,916.44,302.12,30.21-10.07,716.31-302.12,716.31-302.12l-816.38-322.26-816.38,322.26Z"/><path class="cls-4" d="m485.29,3976.95c30.21,0,886.22,312.19,916.44,302.12,30.21-10.07,716.31-302.12,716.31-302.12l-816.38-322.26-816.38,322.26Z"/><path class="cls-4" d="m485.29,3964.94c30.21,0,886.22,312.19,916.44,302.12,30.21-10.07,716.31-302.12,716.31-302.12l-816.38-322.26-816.38,322.26Z"/><path class="cls-4" d="m485.29,3952.92c30.21,0,886.22,312.19,916.44,302.12,30.21-10.07,716.31-302.12,716.31-302.12l-816.38-322.26-816.38,322.26Z"/><path class="cls-4" d="m485.29,3940.91c30.21,0,886.22,312.19,916.44,302.12,30.21-10.07,716.31-302.12,716.31-302.12l-816.38-322.26-816.38,322.26Z"/><path class="cls-4" d="m485.29,3928.9c30.21,0,886.22,312.19,916.44,302.12,30.21-10.07,716.31-302.12,716.31-302.12l-816.38-322.26-816.38,322.26Z"/><path class="cls-4" d="m485.29,3916.89c30.21,0,886.22,312.19,916.44,302.12,30.21-10.07,716.31-302.12,716.31-302.12l-816.38-322.26-816.38,322.26Z"/><path class="cls-4" d="m485.29,3904.87c30.21,0,886.22,312.19,916.44,302.12,30.21-10.07,716.31-302.12,716.31-302.12l-816.38-322.26-816.38,322.26Z"/><path class="cls-4" d="m485.29,3892.86c30.21,0,886.22,312.19,916.44,302.12,30.21-10.07,716.31-302.12,716.31-302.12l-816.38-322.26-816.38,322.26Z"/><path class="cls-4" d="m485.29,3880.85c30.21,0,886.22,312.19,916.44,302.12,30.21-10.07,716.31-302.12,716.31-302.12l-816.38-322.26-816.38,322.26Z"/><path class="cls-4" d="m485.29,3868.84c30.21,0,886.22,312.19,916.44,302.12,30.21-10.07,716.31-302.12,716.31-302.12l-816.38-322.26-816.38,322.26Z"/><path class="cls-4" d="m485.29,3856.82c30.21,0,886.22,312.19,916.44,302.12,30.21-10.07,716.31-302.12,716.31-302.12l-816.38-322.26-816.38,322.26Z"/><path class="cls-4" d="m485.29,3844.81c30.21,0,886.22,312.19,916.44,302.12,30.21-10.07,716.31-302.12,716.31-302.12l-816.38-322.26-816.38,322.26Z"/><path class="cls-4" d="m485.29,3832.8c30.21,0,886.22,312.19,916.44,302.12,30.21-10.07,716.31-302.12,716.31-302.12l-816.38-322.26-816.38,322.26Z"/><path class="cls-4" d="m485.29,3820.78c30.21,0,886.22,312.19,916.44,302.12,30.21-10.07,716.31-302.12,716.31-302.12l-816.38-322.26-816.38,322.26Z"/><path class="cls-4" d="m485.29,3808.77c30.21,0,886.22,312.19,916.44,302.12,30.21-10.07,716.31-302.12,716.31-302.12l-816.38-322.26-816.38,322.26Z"/><path class="cls-4" d="m485.29,3796.76c30.21,0,886.22,312.19,916.44,302.12,30.21-10.07,716.31-302.12,716.31-302.12l-816.38-322.26-816.38,322.26Z"/><path class="cls-4" d="m485.29,3784.75c30.21,0,886.22,312.19,916.44,302.12,30.21-10.07,716.31-302.12,716.31-302.12l-816.38-322.26-816.38,322.26Z"/><path class="cls-4" d="m485.29,3772.73c30.21,0,886.22,312.19,916.44,302.12,30.21-10.07,716.31-302.12,716.31-302.12l-816.38-322.26-816.38,322.26Z"/><path class="cls-4" d="m485.29,3760.72c30.21,0,886.22,312.19,916.44,302.12,30.21-10.07,716.31-302.12,716.31-302.12l-816.38-322.26-816.38,322.26Z"/><path class="cls-4" d="m485.29,3748.71c30.21,0,886.22,312.19,916.44,302.12,30.21-10.07,716.31-302.12,716.31-302.12l-816.38-322.26-816.38,322.26Z"/><path class="cls-4" d="m485.29,3736.7c30.21,0,886.22,312.19,916.44,302.12,30.21-10.07,716.31-302.12,716.31-302.12l-816.38-322.26-816.38,322.26Z"/></g><polygon class="cls-2" points="1331.68 2234.06 117.05 4039.06 2546.32 4039.06 1331.68 2234.06"/><path class="cls-5" d="m117.05,4039.06l1284.68-.24s191.19-964.88-70.04-1804.76h0L117.05,4039.06Z"/><polygon class="cls-3" points="485.29 4039.06 485.29 4949.98 1401.73 5252.1 1401.73 4038.82 485.29 4039.06"/><polygon class="cls-1" points="2299.2 4039.06 2299.2 4949.98 1382.76 5252.1 1382.76 4038.82 2299.2 4039.06"/><polygon class="cls-6" points="1799.98 5111.09 1799.98 4502.3 2065.87 4462.7 2065.87 5023.44 1799.98 5111.09"/><g><path class="cls-3" d="m2928.18,4237.12c-1.44,8.97-4.13,21.7-8.07,38.19-.36,0-13.45,4.13-39.26,12.37-16.5,5.03-26.71,15.24-30.66,30.66-3.59,6.82-7.89,17.21-12.91,31.19-.72,4.3-6.28,39.62-16.67,105.95l-2.69,471.14c-2.87,15.78-4.3,24.39-4.3,25.82,0-.35,1.43,6.1,4.3,19.36l-1.61,141.45c-2.87,19.36-2.87,46.25,0,80.67,3.23,39.8,9.32,72.07,18.29,96.81,2.87,8.61,10.57,17.93,23.13,27.97,21.87,18.29,43.92,27.24,66.15,26.89,0,7.88-2.34,19.54-6.99,34.96h-74.76c-1.08,0-8.34-.63-21.78-1.88-13.45-1.26-20.71-1.88-21.78-1.88s-6.82.62-17.21,1.88c-10.4,1.25-16.13,1.88-17.21,1.88-.72,0-4.66-.63-11.83-1.88-7.18-1.26-11.48-1.88-12.91-1.88-1.08,0-3.95.62-8.61,1.88-4.66,1.25-7.53,1.88-8.61,1.88l-134.99,3.76c-11.48,0-17.21-5.92-17.21-17.75,0-13.98,2.87-22.05,8.61-24.2,13.98-3.95,27.78-7.71,41.41-11.29,16.49-4.66,26.89-12.91,31.19-24.74,1.79-7.18,4.3-18.29,7.53-33.35,6.09.72,15.41,2.69,27.97,5.92,4.3-25.1,6.45-41.23,6.45-48.4s-2.15-15.96-6.45-27.43c3.58-12.55,4.12-22.95,1.61-31.19-1.8-6.1-5.74-16.49-11.83-31.19-5.38-12.91-8.07-20.26-8.07-22.05,0,4.3,3.4-13.98,10.22-54.86,1.08-4.65,0-11.65-3.23-20.98,7.17-16.85,10.76-28.5,10.76-34.96,0-1.08-1.08-20.98-3.23-59.7,0-2.86-1.53-8.61-4.57-17.21-3.05-8.61-4.57-13.62-4.57-15.06,0-2.86,1.61-7.17,4.84-12.91-.36,2.15-.54-1.08-.54-9.68v-111.33c0-1.79.89-7.26,2.69-16.4,1.79-9.14,2.69-14.61,2.69-16.41,0-1.08-.63-3.31-1.88-6.72-1.26-3.41-1.88-6-1.88-7.8-.72-8.96-.19-38.9,1.61-89.82.35-6.09-.36-23.13-2.15-51.09v-110.79c0-6.81-3.05-16.67-9.14-29.58,1.43-6.45,0-18.82-4.3-37.11-.36-8.61-1.97-21.51-4.84-38.72-3.23-5.38-7.53-13.26-12.91-23.66-1.8-6.09-4.84-15.24-9.14-27.43-8.25-18.64-16.32-30.66-24.2-36.03-9.68-3.58-24.56-10.4-44.64-20.44,1.08-8.61,3.4-19.71,6.99-33.35h5.92c1.08,0,5.02.72,11.83,2.15,6.81,1.44,10.93,2.15,12.37,2.15h248.48l72.61-3.76Z"/><path class="cls-3" d="m3656.39,4460.85c-6.82,1.08-16.67,2.88-29.58,5.38-13.63,3.95-24.39,12.56-32.27,25.82-11.12,19.72-17.93,39.09-20.44,58.09-4.66,32.99-6.99,59.88-6.99,80.67,0,1.44.71,16.94,2.15,46.52,1.43,29.58,2.15,45.27,2.15,47.06v85.51c0,1.08.62,4.67,1.88,10.76,1.25,6.1,1.7,10.76,1.34,13.98-2.15,43.39-3.23,67.77-3.23,73.14,0,2.88.71,8.7,2.15,17.48,1.43,8.79,2.15,13.9,2.15,15.33v165.11c0,2.15.27,3.32.81,3.5.54.18.81.45.81.81-25.1,4.3-36.4,6.45-33.88,6.45-15.06,0-24.39-1.61-27.97-4.84-24.74-22.94-61.31-63.1-109.72-120.47-8.61-11.47-21.51-27.97-38.72-49.48-15.06-14.7-35.5-36.21-61.31-64.54-6.45-10.76-17.21-26.71-32.27-47.87-32.27-39.08-77.98-96.62-137.15-172.64-7.89-6.09-18.65-15.77-32.27-29.04-.36-2.5-1.44-6.09-3.23-10.76-4.3-6.81-11.48-17.02-21.51-30.66-7.53,3.59-11.29,9.14-11.29,16.67,0-.35,2.5,17.93,7.53,54.86.35,2.15,0,5.47-1.08,9.95-1.08,4.49-1.61,7.45-1.61,8.87,0,14.35.62,36.49,1.88,66.42,1.25,29.94,1.88,44.56,1.88,43.83v75.3c0,2.15.27,20.44.81,54.86.54,34.42.81,52.53.81,54.32,0,74.94,26.71,114.38,80.14,118.32,1.08,0,2.42,1.53,4.03,4.57,1.61,3.05,2.77,4.93,3.5,5.65.35,6.45-.54,11.83-2.69,16.13h-187.7c-1.44,0-7.98.98-19.63,2.96-11.66,1.97-18.38,2.96-20.17,2.96h-8.61c-3.23-3.23-4.84-5.2-4.84-5.92,0-12.55,3.94-20.98,11.83-25.28,9.32-2.86,22.94-8.24,40.87-16.13,17.56-9.68,28.14-25.09,31.73-46.25,9.32-51.98,11.29-83.71,5.92-95.2-2.51-5.02-2.87-9.32-1.08-12.91l4.3-5.38-3.23-4.84c-.36-3.94-.19-10.84.54-20.7.71-9.86,1.08-16.94,1.08-21.25,0-5.02-.99-13.62-2.96-25.82-1.97-12.18-2.96-20.79-2.96-25.82,0,5.38.71-5.73,2.15-33.35-.36-1.08-1.97-4.65-4.84-10.76l2.69-2.69c1.43-2.15,2.33-6.09,2.69-11.83.71-1.08.71-2.33,0-3.76-5.03-40.51-7.53-67.77-7.53-81.75v-74.22c-2.51-42.3-3.76-68.12-3.76-77.45,0-1.08.62-3.4,1.88-6.99,1.25-3.58,1.7-6.63,1.34-9.14-27.25-28.68-61.5-41.59-102.72-38.72l-2.69-2.69v-17.75c3.94-4.65,13.62-6.99,29.04-6.99,1.79,0,16.22.72,43.3,2.15,27.07,1.44,41.5,2.15,43.3,2.15,1.43,0,14.79-.71,40.07-2.15,25.28-1.43,38.81-2.15,40.61-2.15,8.61,0,13.62.36,15.06,1.08,5.02,1.8,15.41,13.45,31.19,34.96,29.76,41.95,74.57,104.34,134.46,187.16,12.18,15.42,30.47,38.37,54.86,68.84-4.3,31.56.18,47.33,13.45,47.33,1.43,0,4.3-1.08,8.61-3.23,4.3-2.15,7.34-3.23,9.14-3.23,4.66,0,10.93,6.64,18.82,19.9,3.94,6.82,7.71,13.45,11.29,19.9,26.17,21.16,42.49,37.3,48.94,48.4,1.43,6.1,3.94,15.06,7.53,26.89,2.87,3.95,5.19,5.92,6.99,5.92s3.58-.71,5.38-2.15c1.79-1.43,2.87-2.15,3.23-2.15,9.68,10.4,22.77,25.64,39.26,45.72,6.09-2.86,9.14-5.55,9.14-8.07,0-1.79-.72-4.84-2.15-9.14-1.44-4.3-2.15-7.34-2.15-9.14v-57.55c0-1.79-.27-4.39-.81-7.8-.54-3.41-.81-7.8-.81-13.18,1.43-6.81,2.5-16.49,3.23-29.04-1.8-10.39-4.13-25.63-6.99-45.72-.72-2.86-.36-8.24,1.08-16.13,1.43-7.88,2.15-12.37,2.15-13.45,0-1.43-.54-4.39-1.61-8.87-1.08-4.48-1.61-7.61-1.61-9.41-.72-6.45-.72-15.23,0-26.35.71-13.98,1.08-23.3,1.08-27.97,0-1.79-.81-4.84-2.42-9.14-1.61-4.3-2.61-7.53-2.96-9.68l2.15-14.52c.35-2.86-.27-8.42-1.88-16.67-1.61-8.24-2.42-14.52-2.42-18.82,0-1.43.71-4.65,2.15-9.68,1.43-5.02,1.97-8.61,1.61-10.76-2.15-14.7-5.92-36.21-11.29-64.54-5.03-18.64-25.46-31.01-61.31-37.11.71-6.09,0-12.55-2.15-19.36,3.94-3.23,16.67-4.84,38.19-4.84l97.88,3.76c-2.15,0,13.98-1.08,48.4-3.23,20.44-1.43,36.39-.18,47.87,3.76v19.9Zm-199.53,410.9l-4.84,5.92-3.23-3.23,2.69-11.29c6.09,5.74,7.88,8.61,5.38,8.61Z"/><path class="cls-3" d="m4220.57,4452.25c-.72,10.76-3.05,30.66-6.99,59.7-3.23,22.95-4.84,40.87-4.84,53.78,0,11.83,1.08,22.95,3.23,33.35-4.66,3.95-6.99,8.79-6.99,14.52,0,2.51.71,6.72,2.15,12.64,1.43,5.92,1.79,10.49,1.08,13.71-3.23,4.67-8.43,7.72-15.6,9.14-7.53,1.8-13.45.72-17.75-3.23,2.87-11.11,4.3-22.05,4.3-32.81,0-.35-1.26-4.3-3.76-11.83,0-5.02-1.08-11.83-3.23-20.44-11.12-17.21-16.86-26.17-17.21-26.89-7.89-10.76-15.96-19-24.2-24.74-22.95-15.41-47.33-25.82-73.14-31.19-16.5-3.94-23.13-5.92-19.9-5.92h-87.13c-13.63,2.88-33.88,7.89-60.77,15.06-30.84,9.68-59.7,28.33-86.59,55.93-3.95,3.95-12.37,18.65-25.28,44.1-18.29,36.93-27.43,66.88-27.43,89.82,0,3.59.35,6.64,1.08,9.14-.72-2.86-1.61,1.26-2.69,12.37-2.15,26.54-2.87,43.39-2.15,50.56.35.36.98,1.8,1.88,4.3.89,2.51,1.34,4.49,1.34,5.92-.72,8.61,1.25,29.58,5.92,62.93,0,7.89,1.08,20.09,3.23,36.57,2.87,3.95,6.45,9.87,10.76,17.75,1.08,5.03,2.87,11.83,5.38,20.44,6.45,7.53,14.87,19.01,25.28,34.42,10.76,22.95,21.69,38.91,32.81,47.87,11.47,7.18,27.78,18.29,48.94,33.35,1.79,4.67,5.02,11.12,9.68,19.36,2.87.36,7.44-.18,13.71-1.61,6.27-1.43,11.03-2.15,14.25-2.15s12.1,1.53,26.62,4.57c14.52,3.05,25.36,4.76,32.54,5.11,25.09,1.44,53.42-.71,84.98-6.45,7.88-1.43,20.08-3.23,36.57-5.38,30.47-5.02,57.01-29.76,79.6-74.22.35-.71,1.43-8.07,3.23-22.05,1.43-4.3,3.04-10.39,4.84-18.29.35-8.96,1.25-22.59,2.69-40.87,2.87-1.08,5.19-1.61,6.99-1.61,10.4,0,15.95,12.19,16.67,36.57,1.08,37.65-.54,74.22-4.84,109.72-.36,11.12-3.59,26.18-9.68,45.18-2.87,3.95-13.63,8.43-32.27,13.45-27.97,7.18-48.67,11.66-62.12,13.45-13.45,1.8-33.44,4.3-59.97,7.53-62.39,7.17-114.56,4.12-156.51-9.14-3.59,0-8.43-.35-14.52-1.08-4.66-2.5-11.29-5.55-19.9-9.14-39.08-10.39-78.35-32.81-117.78-67.23-41.24-36.57-68.13-74.03-80.67-112.41-2.87-6.45-7.18-15.95-12.91-28.5,0-2.86-.36-6.99-1.08-12.37-3.23-5.38-6.99-13.45-11.29-24.2-1.8-8.96-3.76-21.86-5.92-38.72-.36-10.03.35-33.88,2.15-71.53.35-8.61,7.71-44.45,22.05-107.57,5.38-8.96,13.08-21.86,23.13-38.72,8.24-13.98,14.52-23.84,18.82-29.58,8.61-12.55,15.77-19.71,21.51-21.51,7.88.72,13.08-.18,15.6-2.69,15.77-16.13,39.44-39.44,70.99-69.92,2.5.72,6.09,1.08,10.76,1.08,3.94-3.94,10.03-8.24,18.29-12.91,3.94,1.08,10.03,1.98,18.29,2.69,19.71-5.73,48.76-12.72,87.13-20.98,14.7-2.15,32.45-3.23,53.24-3.23h68.84l85.51,7.53c20.08-.35,46.43,2.15,79.06,7.53Z"/><path class="cls-3" d="m4892.86,5115.39c-6.45,2.87-15.96,3.76-28.5,2.69-20.8-1.8-30.48-2.69-29.04-2.69h-43.03c-51.99,0-92.51,2.69-121.55,8.07-16.13,2.87-26.89,1.25-32.27-4.84-.72-10.76-.19-19.9,1.61-27.43,7.17-.71,17.21-3.23,30.12-7.53,5.38-3.23,9.49-8.61,12.37-16.13,2.87-7.53,3.4-13.45,1.61-17.75-4.66-20.79-11.83-51.98-21.51-93.58-.72-2.5-4.66-12.72-11.83-30.66-5.74-14.34-8.61-25.28-8.61-32.81-.36-2.15-2.69-3.23-6.99-3.23-6.1,0-35.5,1.44-88.2,4.3l-113.48,1.61c-8.25-.35-15.96,7.18-23.13,22.59-3.59,7.89-8.61,19.55-15.06,34.96-8.25,25.1-12.19,39.99-11.83,44.64,0-2.5-1.8,8.25-5.38,32.27-2.51,16.86-2.51,28.33,0,34.42,1.43,3.59,6.9,9.33,16.4,17.21,9.5,7.89,17.66,13.09,24.47,15.6,1.79.72,4.66,1.61,8.61,2.69,2.87,5.03,5.19,8.97,6.99,11.83-7.53,2.15-17.93,4.48-31.19,6.99-20.8-1.8-50.74-3.23-89.82-4.3-8.25,2.5-20.98,5.02-38.19,7.53-.72,0-13.81-1.61-39.26-4.84-.71-1.8-1.08-3.41-1.08-4.84,0-4.3,5.38-10.39,16.13-18.29,3.94-5.38,10.57-12.37,19.9-20.98,8.24-5.38,15.41-14.6,21.51-27.7,6.09-13.09,15.41-33.43,27.97-61.04,5.38-17.21,13.45-43.2,24.2-77.98,7.17-16.49,16.31-41.59,27.43-75.3,8.24-24.74,20.25-61.49,36.03-110.25,1.43-1.43,3.23-3.58,5.38-6.45,1.08,5.74,2.5,8.61,4.3,8.61,2.5,0,5.73-7.7,9.68-23.13,3.58-13.98,5.38-24.02,5.38-30.12,0-1.08-.19-1.61-.54-1.61-.72,1.08-1.97,4.3-3.76,9.68,0-3.58.35-8.61,1.08-15.06,5.73-15.06,13.8-37.29,24.2-66.69,2.5-13.98,10.22-34.77,23.13-62.39,1.79-6.09,4.48-15.41,8.07-27.97,3.23-10.76,9.5-26.89,18.82-48.4,1.08-4.65,3.76-11.29,8.07-19.9,2.15-2.5,10.57-3.23,25.28-2.15,13.98.36,35.14,1.61,63.46,3.76,9.32,26.89,25.99,69.74,50.02,128.54.71,6.82,2.69,16.86,5.92,30.12,5.73,16.86,13.26,32.46,22.59,46.79-1.8,2.51-.36,11.83,4.3,27.97,5.73,12.91,14.16,31.92,25.28,57.01,7.53,24.74,19.18,59.16,34.96,103.26,1.08,10.04,4.48,24.39,10.22,43.03,0,2.88.89,7.35,2.69,13.45,4.3,9.33,12.01,27.25,23.13,53.78,3.94,5.74,9.32,14.52,16.13,26.35-.36,2.88,0,6.82,1.08,11.83,5.02,14.71,12.72,35.32,23.13,61.85,3.58,6.1,9.68,17.21,18.29,33.35,2.15,4.3,12.37,9.87,30.66,16.67,5.38,1.8,13.26,4.49,23.66,8.07v14.52Zm-276.44-281.82c-.36-.35-13.45-36.03-39.26-107.03-4.3-14.34-10.94-35.67-19.9-64-4.3-8.61-10.04-20.98-17.21-37.11-2.15-7.53-5.92-18.29-11.29-32.27-12.91,29.41-27.25,59.16-43.03,89.28-2.15,2.15-4.66,5.56-7.53,10.22-1.08,5.38-3.05,13.63-5.92,24.74-2.51,5.03-5.56,12.19-9.14,21.51-.36,6.1-1.26,13.98-2.69,23.66-2.51,3.59-5.38,8.61-8.61,15.06-1.8,8.25-4.49,19.9-8.07,34.96-1.8,2.88-4.13,6.82-6.99,11.83.71-3.94,1.08-.89,1.08,9.14h178.56Z"/><path class="cls-5" d="m5810.83,5098.3c1.43,2.51,2.15,5.03,2.15,7.53,0,12.19-7.35,18.29-22.05,18.29-2.87,0-5.74-.54-8.61-1.61-8.61-3.95-18.47-6.27-29.58-6.99-7.89-.71-18.11-.71-30.66,0-15.42.36-25.46.54-30.12.54-50.56-1.08-80.05-.81-88.47.81-8.43,1.61-21.78,3.31-40.07,5.11-16.13,1.43-26.18-1.8-30.12-9.68-1.08-2.5-.54-6,1.61-10.49,2.15-4.48,5.02-7.08,8.61-7.8,1.08-.35,14.87-1.79,41.41-4.3,20.44-2.15,32.99-19.36,37.65-51.63.72-21.51,1.79-53.96,3.23-97.35,0-2.5-.63-6.63-1.88-12.37-1.26-5.73-1.88-9.86-1.88-12.37.72-29.39-1.61-71.17-6.99-125.31v-42.49c0-.71-1.53-7.26-4.57-19.63-3.05-12.37-4.76-21.25-5.11-26.62-1.8-24.02-2.34-40.51-1.61-49.48,0-.35.98-3.94,2.96-10.76,1.97-6.81,2.96-12.55,2.96-17.21,0-7.53-2.34-13.26-6.99-17.21-8.61,6.1-15.06,17.4-19.36,33.88-3.23,5.03-7.18,12.19-11.83,21.51-1.44,6.82-4.12,16.67-8.07,29.58-1.8,2.51-4.66,6.99-8.61,13.45-.72,3.95-2.15,9.33-4.3,16.13-6.45,13.27-15.96,32.63-28.5,58.09-.72,5.03-2.15,12.56-4.3,22.59-3.23,4.3-6.81,9.87-10.76,16.67-.72,5.38-2.69,12.56-5.92,21.51-6.45,11.12-15.42,28.15-26.89,51.09-1.08,7.18-3.59,17.57-7.53,31.19-1.8,2.15-4.3,5.38-7.53,9.68-.36,1.08-2.87,8.79-7.53,23.13-2.87,4.67-6.28,11.29-10.22,19.9-1.08,5.03-3.23,12.73-6.45,23.13-2.87,3.59-6.28,9.51-10.22,17.75,0,.36-10.94,25.82-32.81,76.37-.36,6.82-4.12,16.13-11.29,27.97-.36,0-8.43.89-24.2,2.69-9.68,1.08-17.21-1.17-22.59-6.72-5.38-5.56-13.81-21.25-25.28-47.06-5.74-11.11-13.63-27.6-23.66-49.48-3.59-11.47-8.96-26.89-16.13-46.25-1.08-2.5-20.44-40.34-58.08-113.48-1.08-4.65-3.05-11.29-5.92-19.9-17.57-33.7-43.03-86.94-76.37-159.73-3.23-14.34-9.68-35.31-19.36-62.93-9.33-19-19.19-28.5-29.58-28.5-2.88,2.51-4.3,12.02-4.3,28.5,1.43,4.3,2.87,10.76,4.3,19.36.35,4.67.18,11.29-.54,19.9-.36,10.4-.54,15.25-.54,14.52v51.63l-13.45,202.76v44.64c0-3.23-.27.54-.81,11.29-.54,10.76-.81,28.33-.81,52.71.35,6.45,2.15,15.06,5.38,25.82,8.96,14.71,17.56,24.56,25.82,29.58,7.17,1.44,18.1,5.03,32.81,10.76,5.38,2.88,6.99,7.89,4.84,15.06-7.18,8.25-27.62,10.22-61.31,5.92h-48.94c-9.68,0-17.03.35-22.05,1.08-23.66,2.5-47.87,3.58-72.61,3.23-3.23-2.15-5.38-5.92-6.45-11.29-1.08-6.09.54-10.22,4.84-12.37,1.79-1.08,10.03-2.5,24.74-4.3,3.23-1.79,7.53-4.3,12.91-7.53,17.21-8.24,28.86-24.2,34.96-47.87,1.43-5.73,3.58-24.38,6.45-55.93,1.79-4.65,4.12-11.29,6.99-19.9,2.5-12.91,3.76-21.69,3.76-26.35v-40.87c0-1.43.45-3.58,1.34-6.45.89-2.86,1.34-4.65,1.34-5.38-.36-21.86,2.5-53.78,8.61-95.73.71-2.86,1.61-14.87,2.69-36.03,1.43-36.57,1.79-61.31,1.08-74.22,0-1.43.54-4.57,1.61-9.41,1.08-4.84,1.61-7.8,1.61-8.88v-75.3c0-1.43,1.88-6.72,5.65-15.86,3.76-9.14,6.19-15.5,7.26-19.09,1.43-6.45,1.43-14.16,0-23.13-2.88-5.38-6.99-13.45-12.37-24.2-.36-7.53-4.84-17.02-13.45-28.5-4.66-.71-11.48-1.79-20.44-3.23-8.97-1.43-20.89-3.58-35.77-6.45-14.88-2.86-22.86-4.48-23.93-4.84-10.04-2.86-15.25-7.53-15.6-13.98,8.61-7.53,23.13-10.03,43.56-7.53,15.06,2.15,35.5,5.03,61.31,8.61,3.23.36,8.42,0,15.6-1.08,8.96-1.79,15.24-2.69,18.82-2.69,1.79-.35,22.23.72,61.31,3.23,10.76.36,19.36,11.29,25.82,32.81,2.87,4.67,7.53,13.45,13.98,26.35,1.79,6.82,4.84,16.67,9.14,29.58,6.09,5.38,13.45,14.17,22.05,26.35.35,6.82,1.25,16.67,2.69,29.58,2.87,3.95,6.27,9.51,10.22,16.67,28.68,64.9,55.75,128.54,81.21,190.93,6.09,15.06,12.46,32.72,19.09,52.98,6.63,20.26,16.4,42.76,29.31,67.5,5.38,5.74,12.19,14.52,20.44,26.35,1.08,1.44,2.69,8.79,4.84,22.05,1.79,8.25,5.73,12.91,11.83,13.98,4.3-.71,7.71-3.4,10.22-8.07,11.11-21.15,23.84-52.71,38.19-94.66,14.34-41.95,28.32-75.83,41.95-101.65,1.43-5.38,3.94-13.62,7.53-24.74,2.87-6.45,7.35-16.31,13.45-29.58.35-1.43,2.24-4.03,5.65-7.8,3.4-3.76,5.46-6.54,6.18-8.34,1.08-7.53,3.58-18.1,7.53-31.73l15.06-34.42c5.38-7.53,14.34-20.25,26.89-38.19,1.08-1.08,3.04-9.68,5.92-25.82.35-1.79,11.11-28.32,32.27-79.6.35-6.45,2.33-16.31,5.92-29.58,9.68-21.86,31.19-29.93,64.54-24.2,3.94,2.15,10.03,4.49,18.29,6.99,26.17,2.51,45.18,2.34,57.01-.54,7.17,0,17.21-.71,30.12-2.15,2.87-1.79,7.71-4.21,14.52-7.26,6.81-3.04,14.16-3.31,22.05-.81,3.94,1.44,6.09,4.3,6.45,8.61,1.08,11.12-4.49,17.93-16.67,20.44-10.4,1.44-20.8,2.88-31.19,4.3-2.87,2.15-7.8,5.56-14.79,10.22-6.99,4.67-16.59,12.91-28.78,24.74-.36.72-3.41,13.81-9.14,39.26-4.66,20.8-4.12,51.99,1.61,93.58,2.5,19.36,4.12,37.11,4.84,53.24,0,17.21.54,43.56,1.61,79.06,0-1.08-.72,18.65-2.15,59.16-.72,22.59.89,45,4.84,67.23,3.94,14.35,8.07,35.86,12.37,64.54,2.15,38.01,3.94,60.24,5.38,66.69,3.94,19.72,13.8,36.22,29.58,49.48,4.66,3.95,10.76,5.74,18.29,5.38,9.32-.71,15.24-.71,17.75,0,4.3,1.44,8.07,4.67,11.29,9.68Z"/><path class="cls-5" d="m6342.2,4584.14c3.23,15.06,1.25,48.4-5.92,100.04-2.51,17.93-12.91,39.35-31.19,64.27-18.29,24.92-36.76,43.48-55.4,55.66-16.86,11.48-40.52,19.72-70.99,24.74-7.53,3.23-18.65,6.82-33.35,10.76-28.33,2.51-64.19,3.76-107.57,3.76-2.51,0-5.56,2.15-9.14,6.45,1.43,13.63,3.04,57.01,4.84,130.15.71,14.35,3.58,32.99,8.61,55.93,0,6.45,1.79,15.96,5.38,28.5,7.17,12.91,19.18,22.05,36.03,27.43,13.26,3.95,26.53,7.89,39.8,11.83.35,3.95.18,8.61-.54,13.98-10.4,4.3-20.98,6.45-31.73,6.45h-55.4c-.72,0-5.47-.9-14.25-2.69-8.79-1.8-15.15-2.69-19.09-2.69-10.76,0-27.7.89-50.82,2.69-23.13,1.79-34.51,2.69-34.15,2.69h-53.24c-5.38,0-11.83-1.8-19.36-5.38,0-.72-.45-2.69-1.34-5.92-.9-3.23-1.34-5.55-1.34-6.99,18.64-5.02,29.93-8.61,33.88-10.76,12.91-6.09,23.48-16.31,31.73-30.66,3.58-6.45,5.92-22.76,6.99-48.94.35-4.3,1.61-15.41,3.76-33.35,2.15-16.13,3.23-28.5,3.23-37.11v-66.69c-.36-16.49-.9-32.98-1.61-49.48.35-18.64,4.66-34.6,12.91-47.87-2.87-2.5-6.1-7.17-9.68-13.98-2.87-19.36-4.3-39.44-4.3-60.24,0-.35,1.43-6.45,4.3-18.29,2.5-9.68,2.69-17.39.54-23.13-5.74-15.41-6.45-34.77-2.15-58.09,1.43-6.81-.9-28.14-6.99-64,0-11.47-3.05-26.53-9.14-45.18-7.53-9.32-17.57-15.41-30.12-18.29-10.4-2.15-20.8-4.3-31.19-6.45,0-20.44-.54-24.74-1.61-12.91.71-5.73,4.3-8.78,10.76-9.14,14.34-.71,37.29-2.33,68.84-4.84,29.04-2.5,44.1-3.76,45.18-3.76h67.77c12.91,0,26.08-1.16,39.53-3.49,13.45-2.33,24.82-3.5,34.15-3.5,11.83,0,26.89,1.08,45.18,3.23,11.11,2.51,27.61,6.1,49.48,10.76,2.15,1.44,5.55,3.05,10.22,4.84,34.06,5.03,64,21.16,89.82,48.4,18.64,19.36,31.55,46.44,38.72,81.21Zm-114.02,60.24c0-11.47-.54-19.18-1.61-23.13-17.93-46.97-32.99-77.26-45.18-90.89-16.86-18.29-35.68-29.76-56.47-34.42-13.63-3.23-35.86-4.12-66.69-2.69-3.23,0-8.07,1.98-14.52,5.92-5.74,60.6-9.33,109.72-10.76,147.36,1.79,2.88,3.4,6.99,4.84,12.37,0,5.03-1.61,25.46-4.84,61.31-1.8,22.95-1.08,46.25,2.15,69.92,1.08,1.08,2.5,2.51,4.3,4.3h52.17c5.73,1.8,12.01,2.69,18.82,2.69,20.79,0,40.69-6.63,59.7-19.9,19-13.26,30.83-24.2,35.5-32.81,15.06-29.39,22.59-62.74,22.59-100.04Z"/><path class="cls-5" d="m6857.44,4948.78c0,7.89-4.22,23.4-12.64,46.52-8.43,23.13-14.61,37.38-18.56,42.76-16.86,20.44-34.78,38.37-53.78,53.78-10.4,8.25-24.03,15.06-40.87,20.44-43.39,13.62-84.44,20.44-123.16,20.44.71,0-6.1-.36-20.44-1.08-12.91-1.08-22.41-1.44-28.5-1.08,1.08,3.23,1.61-3.05,1.61-18.82-8.97-8.61-20.8-12.91-35.5-12.91-5.38,0-10.4,2.34-15.06,6.99.71.72,6.09,3.23,16.13,7.53-2.15,6.45-6.45,9.68-12.91,9.68-6.82,0-22.05-2.87-45.72-8.61-30.84-7.53-53.24-16.13-67.23-25.82-3.23-2.15-6.82-16.49-10.76-43.03-2.87-21.15-4.3-47.14-4.3-77.98,0-27.97,1.43-50.73,4.3-68.3,1.79.36,7.53-.35,17.21-2.15,2.87,3.59,4.12,10.4,3.76,20.44-.36,12.91-.54,19.19-.54,18.82,1.79,8.61,4.48,21.34,8.07,38.19.35,2.51,5.19,10.4,14.52,23.66,5.38,8.61,15.06,20.44,29.04,35.5,11.83,9.33,27.78,16.5,47.87,21.51,10.76,3.23,21.51,6.64,32.27,10.22,13.62,3.95,24.92,5.92,33.88,5.92,3.58,2.15,6.27,3.23,8.07,3.23,1.43,0,3.58-.35,6.45-1.08,2.87-.71,5.02-1.08,6.45-1.08,1.79,0,8.61,1.35,20.44,4.04,11.83,2.69,18.46,4.03,19.9,4.03s4.92-2.06,10.49-6.18c5.55-4.12,9.77-6.54,12.64-7.26,10.03-2.15,24.74-5.19,44.1-9.14,10.03-2.15,18.1-11.83,24.2-29.04,2.5-4.65,6.09-11.47,10.76-20.44,0-2.5.35-6.45,1.08-11.83.71-2.5,2.87-6.99,6.45-13.45,3.58-6.45,5.38-10.57,5.38-12.37,0-13.26-1.61-24.55-4.84-33.88-1.8-5.73-9.14-18.46-22.05-38.19-3.95-2.86-9.68-6.99-17.21-12.37-31.19-25.09-61.31-42.49-90.35-52.17-7.89-4.65-19.36-10.93-34.42-18.82-17.93-7.53-46.79-23.66-86.59-48.4-2.87-1.08-6.99-2.86-12.37-5.38-10.76-8.96-21.87-20.61-33.35-34.96-16.5-20.79-25.46-31.91-26.89-33.35,0-5.02-.36-12.55-1.08-22.59-2.15-3.58-5.2-9.49-9.14-17.75,0-7.53-.54-17.92-1.61-31.19,2.15-2.86,3.23-5.38,3.23-7.53-3.95-9.32-5.92-13.8-5.92-13.45,0,.72,3.76-7.7,11.29-25.28,1.08-7.88,3.58-18.64,7.53-32.27,1.43-3.23,10.93-13.45,28.5-30.66,8.24,3.95,12.01,5.92,11.29,5.92,1.08-4.65,3.23-10.57,6.45-17.75,32.98-31.55,63.28-50.91,90.89-58.09,22.59-5.73,52.88-8.61,90.89-8.61,1.79,0,19.9,1.98,54.32,5.92,34.42,3.95,52.52,5.92,54.32,5.92,1.43,0,9.41-.98,23.93-2.96,14.52-1.97,22.67-2.96,24.47-2.96,10.03,0,15.06,4.3,15.06,12.91l-8.07,88.74v46.79c0,.72-.36,6.99-1.08,18.82-.72,11.83-1.08,20.44-1.08,25.82-.36,0-1.53.72-3.5,2.15-1.97,1.44-3.86,2.15-5.65,2.15h-12.37c-1.08-11.47-3.41-27.78-6.99-48.94-11.12-42.3-34.24-69.73-69.38-82.29-18.29-6.45-50.38-9.68-96.27-9.68-8.61,0-23.31,3.59-44.1,10.76-17.93,6.1-34.96,21.7-51.09,46.79-5.74,8.97-8.61,18.65-8.61,29.04,0,16.86,5.55,37.11,16.67,60.77,4.66,4.3,11.11,10.22,19.36,17.75,24.74,24.74,61.49,47.15,110.25,67.23,77.09,31.56,130.69,66.34,160.81,104.34,11.11,13.98,18.64,30.3,22.59,48.94,4.66,21.88,6.99,44.1,6.99,66.69Z"/><path class="cls-5" d="m7186.59,4502.92c-1.44,5.38-3.76,12.91-6.99,22.59l-32.27,6.99c-13.63,3.23-22.24,9.33-25.82,18.29-2.87,4.3-6.45,10.4-10.76,18.29-.72,2.51-5.38,23.31-13.98,62.39l-2.15,225.89c-2.51,9.33-3.76,14.35-3.76,15.06l3.76,11.29-1.08,83.36c-2.51,11.48-2.51,27.25,0,47.33,2.5,23.31,7.53,42.31,15.06,57.01,2.5,5.03,8.78,10.58,18.82,16.67,18.64,10.76,37.29,15.96,55.93,15.6-.36,4.67-2.34,11.48-5.92,20.44h-62.39c-1.08,0-7.26-.36-18.56-1.08-11.29-.72-17.3-1.08-18.02-1.08-1.08,0-5.92.35-14.52,1.08-8.61.72-13.27,1.08-13.98,1.08s-4.03-.36-9.95-1.08c-5.92-.72-9.41-1.08-10.49-1.08s-3.5.35-7.26,1.08c-3.76.72-6.19,1.08-7.26,1.08l-112.41,2.69c-9.68,0-14.52-3.59-14.52-10.76,0-8.24,2.5-13.08,7.53-14.52,11.47-2.15,22.94-4.12,34.42-5.92,13.26-2.86,21.87-7.7,25.82-14.52,1.43-4.3,3.58-10.93,6.45-19.9,5.02.36,12.72,1.44,23.13,3.23,3.58-14.7,5.38-24.2,5.38-28.5,0-3.94-1.8-9.32-5.38-16.13,2.87-7.17,3.4-13.26,1.61-18.29-1.44-3.58-4.84-9.68-10.22-18.29-4.66-7.53-6.99-11.83-6.99-12.91,0,2.51,3.04-8.24,9.14-32.27.71-2.86-.36-6.99-3.23-12.37,6.09-10.03,9.14-16.85,9.14-20.44,0-.71-.9-12.37-2.69-34.96,0-1.79-1.26-5.19-3.76-10.22-2.51-5.02-3.76-8.07-3.76-9.14,0-1.43,1.43-3.94,4.3-7.53-.72,1.44-1.08-.54-1.08-5.92v-65.08c0-1.08.81-4.3,2.42-9.68,1.61-5.38,2.42-8.61,2.42-9.68,0-.71-.54-2.06-1.61-4.03-1.08-1.97-1.61-3.5-1.61-4.57,0,1.44.54-6.63,1.61-24.2,0-3.58-.72-13.62-2.15-30.12v-42.49c0-3.94-2.51-9.68-7.53-17.21,1.43-3.94.35-11.29-3.23-22.05-.36-5.02-1.8-12.55-4.3-22.59-2.87-3.23-6.45-7.88-10.76-13.98-1.44-3.58-3.95-8.96-7.53-16.13-7.18-11.11-13.98-18.29-20.44-21.51-8.25-2.15-20.62-6.09-37.11-11.83,1.08-5.02,3.04-11.47,5.92-19.36h4.84c1.08,0,4.39.36,9.95,1.08,5.55.72,8.87,1.08,9.95,1.08l267.84-2.15Z"/><path class="cls-5" d="m7760.45,4451.83c-2.15,13.63-4.66,29.94-7.53,48.94v124.78c-1.8,0-5.02.54-9.68,1.61-4.66,1.08-7.89,1.61-9.68,1.61-.72-2.86-3.59-24.2-8.61-64-2.87-22.94-13.45-40.51-31.73-52.71-7.89-5.73-26.54-5.38-55.93,1.08-14.71,1.44-35.86,4.84-63.46,10.22-9.68,3.23-15.78,9.33-18.29,18.29-6.1,22.95-6.72,56.12-1.88,99.5,4.84,43.39,3.5,103.09-4.03,179.1,0-.35,2.33,24.39,6.99,74.22-1.44,17.21-1.8,43.03-1.08,77.45,3.94,18.29,9.68,46.08,17.21,83.36,3.58,17.93,15.6,29.41,36.03,34.42,16.49,3.95,32.98,7.72,49.48,11.29,0,5.38-4.13,13.27-12.37,23.66h-304.95c-2.87,0-4.3-2.15-4.3-6.45,0-1.08.18-3.94.54-8.61,11.11-2.5,27.43-7.7,48.94-15.6,18.64-10.03,32.45-22.05,41.41-36.03,2.5-3.94,5.02-20.07,7.53-48.4,1.43-49.48,3.23-101.29,5.38-155.43v-193.62h14.52c.71-.35,1.97-1.97,3.76-4.84-5.02-11.83-11.12-28.86-18.29-51.09-.72-4.3-3.59-31.73-8.61-82.29h-99.5c-10.4,0-23.31,5.74-38.72,17.21-15.42,11.48-23.85,20.8-25.28,27.97-7.53,31.92-14.88,53.97-22.05,66.15-3.59,6.1-11.66,9.14-24.2,9.14,0-1.43-.72-5.92-2.15-13.45-1.08-6.45-1.26-11.11-.54-13.98,4.3-14.7,8.42-37.46,12.37-68.3,4.66-37.29,8.24-62.39,10.76-75.3l17.21-22.59c-10.76-1.08,22.05-1.61,98.42-1.61,22.23,0,56.02,1.98,101.38,5.92,45.35,3.95,67.14,5.92,65.35,5.92h88.74c-.36,0,10.4-1.79,32.27-5.38,23.66-3.58,46.43-5.92,68.3-6.99,8.24-1.08,16.49-2.15,24.74-3.23,10.76-1.08,17.92,1.61,21.51,8.07Z"/><path class="cls-5" d="m8326.78,4945.56c-1.08,18.65-3.41,45-6.99,79.06-4.3,9.33-9.68,22.41-16.13,39.26-1.44,7.18-4.13,17.21-8.07,30.12-1.44,3.95-6.1,10.58-13.98,19.9-9.33,11.47-16.86,17.21-22.59,17.21h-137.15c-2.51,0-18.65-.54-48.4-1.61-29.76-1.08-45.9-1.61-48.4-1.61h-82.83c-2.15,0-13.18-.99-33.08-2.96-19.9-1.98-31.11-2.96-33.61-2.96h-81.21l-6.99-7.53c3.94-5.02,19.54-15.77,46.79-32.27,18.64-11.83,27.97-26.17,27.97-43.03v-169.95c0-27.6,4.3-64.71,12.91-111.33-4.66-14.34-5.56-32.27-2.69-53.78-6.45-5.38-9.68-12.91-9.68-22.59,0-.71,3.58-15.41,10.76-44.1.35-2.5-1.44-7.53-5.38-15.06-5.02-8.96-7.71-13.62-8.07-13.98-2.51-7.53-3.59-19.36-3.23-35.5v-36.57c-1.08-12.18-3.59-22.05-7.53-29.58-5.38-10.39-14.17-18.64-26.35-24.74-10.76-4.65-21.51-9.49-32.27-14.52,5.02-11.83,10.4-18.1,16.13-18.82,11.11,1.44,27.07,1.8,47.87,1.08,22.94-5.38,34.06-8.07,33.35-8.07h95.2c1.43,0,12.28,1.26,32.54,3.76,20.25,2.51,35.58,3.95,45.98,4.3,4.3,0,40.15-2.33,107.57-6.99,15.41-1.08,55.75,0,121.01,3.23,5.73,3.95,8.61,8.79,8.61,14.52,0,3.23-1.17,7.89-3.5,13.98-2.34,6.1-3.5,10.58-3.5,13.45-.36,11.83-4.13,50.92-11.29,117.25-1.08,2.15-6.28,5.56-15.6,10.22-2.15-3.58-8.79-22.76-19.9-57.55-7.18-22.59-20.44-34.96-39.8-37.11-7.89-1.79-15.96-3.58-24.2-5.38-11.12-2.5-19.72-2.86-25.82-1.08-15.78,4.67-50.02,5.2-102.72,1.61-29.04-2.15-50.92-1.61-65.61,1.61-4.3,1.08-7.18,5.2-8.61,12.37,12.91,41.95,13.45,79.06,1.61,111.33.71-2.15,1.08,6.82,1.08,26.89,0,5.03-.9,15.42-2.69,31.19-1.8,12.91-2.15,23.31-1.08,31.19.35,3.59,3.76,8.25,10.22,13.98h202.76c6.45-2.15,12.72-4.3,18.82-6.45,10.03-3.58,17.03-9.14,20.98-16.67,3.58-9.32,10.22-22.23,19.9-38.72,11.47,0,18.82,3.95,22.05,11.83-1.44,20.44-2.87,46.62-4.3,78.52-.36,21.16-2.87,52.17-7.53,93.04-1.44,6.1-8.61,8.07-21.51,5.92-4.66-8.61-12.91-19.9-24.74-33.88-21.87-16.49-41.77-24.74-59.7-24.74h-74.22c-4.66,0-13.81-.89-27.43-2.69-13.63-1.79-23.85-2.69-30.66-2.69-19.01,0-31.02,5.56-36.03,16.67-5.74,12.56-8.61,22.24-8.61,29.04,0,6.45,1.25,18.65,3.76,36.57,2.5,17.93,3.58,31.73,3.23,41.41-.36,5.03-2.07,14.44-5.11,28.24-3.05,13.81-4.57,24.66-4.57,32.54,0,6.1.71,11.66,2.15,16.67,2.5,8.61,12.28,19.01,29.31,31.19,17.03,12.19,31.64,19.19,43.83,20.98,1.79.72,3.58,1.44,5.38,2.15,3.58,1.08,6.81,1.61,9.68,1.61h89.28c20.08,0,36.93-3.23,50.56-9.68,19-8.61,37.46-22.94,55.4-43.03,19.72-22.23,30.29-43.38,31.73-63.46,9.32-6.09,20.98-7.17,34.96-3.23Z"/></g></svg>